<?xml version="1.0" encoding="UTF-8"?>
<svg version="1.1" viewBox="0 0 2048 805" width="2917" height="1147" xmlns="http://www.w3.org/2000/svg">
<path transform="translate(0)" d="m0 0h2048v805h-2048z" fill="#FDFDFE"/>
<path transform="translate(242,228)" d="m0 0h275l12 3 10 6 5 4 7 11 3 13v76h-1l-2-10-6-12-9-8-10-5-8-2h-70l-12 2-10 5-6 5-6 10-3 8-1 7-1 24h20l2 1v-25l3-9h2v-2l7-4 4-1h68l7 2 3 1v2l3 1 4 9v90l-13-3h-75l-12 3-10 7-7 9-4 11-1 5v42l4 13 6 8v2l4 2 10 6 10 3v1h-218l-1-1v-21h-54l-7-2-5-4-4-8v-102l3-7 5-5 4-2h76l8 5 4 6 1 5v24l6-1h16l-1-23-2-11-6-12-9-8-11-5-5-1-19-1-60 1-10 3v-105l4-8 5-4 6-2h70l8 3 6 7 2 8v36l7-1h15l-1-37-3-14-7-10-8-7-13-5z" fill="#032E9C"/>
<path transform="translate(242,228)" d="m0 0h275l12 3 10 6 5 4 7 11 3 13v76h-1l-2-10-6-12-9-8-10-5-8-2h-70l-12 2-10 5-6 5-6 10-3 8-1 7-1 24-59 1-10 3-9 6-6 7-5 10-2 9-1 25h-39l-1-23-2-11-6-12-9-8-11-5-5-1-19-1-60 1-10 3v-105l4-8 5-4 6-2h70l8 3 6 7 2 8v36l7-1h15l-1-37-3-14-7-10-8-7-13-5z" fill="#39D8AB"/>
<path transform="translate(448,303)" d="m0 0h70l13 4 10 7 7 8 5 12 1 7v236l-4 13-6 9-7 7-10 5-10 2-14-1-12-5-10-9-7-14-2-11-1-21-4-8-8-4-18-2-11-4-10-7-7-10-4-13v-42l3-11 4-8 8-9 8-5 12-3h75l13 4-1-91-4-8-2-1v-2l-10-2h-70l-6 3-3 1v2h-2l-2 9-1 25-22-1v-26l2-9 6-11 6-7 10-6 6-2z" fill="#FF7F00"/>
<path transform="translate(168,228)" d="m0 0h74l13 4 9 6 8 9 4 8 2 11v37l-22 1-1-36-2-8-5-6-8-3h-70l-8 3-4 5-2 5v104l9-3 61-1 18 1 10 3 10 6 8 9 5 12 1 8v23l-22 1-1-24-3-9-5-4-4-2h-76l-5 3h-2l-2 4-2 6v102l4 8 6 4 5 1 54 1v22h-55l-10-2-10-5-7-6-6-9-4-13v-242l4-12 7-10 7-6 11-5z" fill="#FEB200"/>
<path transform="translate(1630,364)" d="m0 0h20l11 3 8 4 10 9 6 10 4 12 2 13v22l-3 16-5 13-7 9-7 6-10 5-7 2-8 1h-11l-14-3-10-6-1-1-1 49-3 5-5 4-8 1-8-4-3-4-1-4v-150l3-6 5-4 3-1h7l7 4 4 8 8-7 10-5z" fill="#010001"/>
<path transform="translate(1045,300)" d="m0 0h8l7 4 3 6v137l-3 12-6 11-9 9-14 7-16 3h-12l-16-3-12-6-8-7-7-11-5-15-1-6v-29l3-14 5-12 7-9 9-7 12-5 5-1h21l11 4 7 4 1-61 3-6 5-4z" fill="#010000"/>
<path transform="translate(716,300)" d="m0 0h8l6 4 3 4 1 3 1 61 14-7 4-1h21l13 4 10 6 8 9 6 12 3 11 1 7v27l-4 17-6 12-6 7-10 7-11 4-12 2h-12l-16-3-14-7-9-9-7-14-2-8v-139l4-6z" fill="#010000"/>
<path transform="translate(1834,364)" d="m0 0h25l12 3 11 6 8 7 7 11 4 11 2 10v29l-4 16-6 11-9 10-10 6-13 4-8 1h-13l-16-3-12-6-10-9-6-9-5-15-2-16v-9l2-17 4-12 7-12 10-9 13-6z" fill="#010000"/>
<path transform="translate(167,387)" d="m0 0h76l8 5 4 6 1 5v24l-11 5-8 6-7 10-4 13-1 56h-54l-7-2-5-4-4-8v-102l3-7 5-5z" fill="#FEFEFE"/>
<path transform="translate(170,250)" d="m0 0h70l8 3 6 7 2 8v37l-11 4-8 6-6 9-4 10-1 5-1 26-60 1-10 3v-105l4-8 5-4z" fill="#FEFEFE"/>
<path transform="translate(1430,364)" d="m0 0h26l12 3 10 5 7 6 6 9 3 9 1 8v71l-3 7-6 5h-10l-6-4-4-7-9 8-11 4-7 1h-11l-14-3-10-6-7-7-5-10-2-11 1-12 4-10 7-8 10-6 11-3 43-1v-7l-3-8-6-5-5-2h-17l-11 4-11 7h-7l-5-3-4-5v-8l4-6 8-7 13-6z" fill="#040001"/>
<path transform="translate(1122,364)" d="m0 0h26l11 3 12 6 8 8 5 10 2 7v80l-4 6-5 3h-9l-5-3-3-3-1-6h-2l-2 4-8 6-9 3-7 1h-12l-13-3-9-5-6-5-6-10-3-10v-13l3-10 6-8 7-6 12-5 5-1h43l-1-11-5-8-9-4h-17l-12 5-7 5-3 1h-7l-6-4-2-4v-9l7-8 5-4 10-5z" fill="#020001"/>
<path transform="translate(870,364)" d="m0 0h26l12 3 11 6 9 9 5 11 1 4v81l-4 6-5 3h-9l-6-4-3-5v-3h-2l-2 4-8 6-9 3-7 1h-11l-14-3-9-5-5-4-6-9-3-8-1-5v-11l3-10 6-9 7-6 12-5 5-1h43l-1-11-4-7-6-4-4-1h-17l-10 4-11 7h-8l-6-4-2-4v-9l7-8 10-7 11-4z" fill="#020001"/>
<path transform="translate(445,448)" d="m0 0h72l8 3 5 6 2 6v112l-3 8-7 6-7 2-8-1-6-3-4-5-2-5-1-21-3-14-7-12-9-7-9-4-4-1-14-1-9-3-5-5-3-7v-38l3-8 4-5z" fill="#FEFEFE"/>
<path transform="translate(445,325)" d="m0 0h70l7 2 3 1v2l3 1 4 9v90l-13-3-57-1-1-24-2-10-6-12-9-8-13-6v-25l3-9h2v-2l7-4z" fill="#FDFDFE"/>
<path transform="translate(353,250)" d="m0 0h72l8 3 5 6 2 6v39l-14 7-6 5-6 10-3 8-1 7-1 24h-40v-23l-2-11-6-12-7-7-12-6-3-1v-41l4-8 5-4z" fill="#FDFDFE"/>
<path transform="translate(356,386)" d="m0 0h66l10 3 6 6 2 6v26l-10 4-9 7-7 10-3 9-1 5v42l3 13h-43l-1-53-3-14-7-11-8-6-12-6v-26l3-7 5-5z" fill="#FEFEFE"/>
<path transform="translate(1262,364)" d="m0 0h22l10 3 10 6 7 9 4 11 1 5v80l-4 6-5 3h-10l-5-3-4-6-1-71-3-9-5-5-8-3h-12l-9 3-6 5-4 11-1 69-4 6-5 3h-10l-6-4-3-5v-103l4-6 4-3 9-1 6 3 4 5 2 4 9-8 9-4z"/>
<path transform="translate(261,325)" d="m0 0h72l9 4 5 7 1 4v26l-12 5-9 8-5 8-3 9-1 5-1 25h-39l-1-23-2-11-6-12-9-8-13-6v-27l4-8 5-4z" fill="#FEFEFE"/>
<path transform="translate(260,448)" d="m0 0h74l8 4 4 5 2 6v54h-101v-55l4-8 6-5z" fill="#FEFEFE"/>
<path transform="translate(168,228)" d="m0 0h74l13 4 9 6 8 9 4 8 2 11v37l-22 1-1-36-2-8-5-6-8-3h-70l-8 3-4 5-3 9-1 102-6 4-8 9-5 12-1 5h-1v-138l4-12 7-10 7-6 11-5z" fill="#FF7F00"/>
<path transform="translate(448,303)" d="m0 0h70l13 4 10 7 7 8 5 12 1 7v120h-1l-4-13-6-9-9-7-2-1-1-92-4-8-2-1v-2l-10-2h-70l-6 3-3 1v2h-2l-2 9-1 25-22-1v-26l2-9 6-11 6-7 10-6 6-2z" fill="#FF0032"/>
<path transform="translate(263,303)" d="m0 0h69l12 3 10 5 9 9 5 11 2 11v22l-1 1-21 1-1-26-3-7-5-5-6-2h-72l-8 4-4 6-1 3-1 27-21-1-1-1v-25l4-13 5-8 4-5 11-7z" fill="#8033FF"/>
<path transform="translate(1761,364)" d="m0 0h11l5 3 3 3 1 3v9l-6 7-2 1-14 2-10 5-6 8-2 7-1 65-4 7-5 3h-10l-6-4-3-5v-103l3-5 5-4 2-1h7l6 3 4 5 2 5 7-8 10-5z"/>
<path transform="translate(350,365)" d="m0 0h79l13 5 9 7 6 8 4 10 1 7v24l-22 1-1-26-3-7-6-5-8-2h-66l-12 4-2 4-2 6-1 26-22-1v-25l3-11 4-8 9-10 12-6z" fill="#39D9AB"/>
<path transform="translate(458,250)" d="m0 0h59l8 3 5 6 2 5v44l-14-4-56-1-1-37-2-11z" fill="#FEFEFE"/>
<path transform="translate(1844,387)" d="m0 0 11 1 8 4 7 8 4 10 1 6v20l-3 12-5 9-6 5-10 3h-9l-10-3-7-6-5-10-2-9v-22l3-11 5-9 9-6z" fill="#FDFDFE"/>
<path transform="translate(426,228)" d="m0 0h91l12 3 10 6 5 4 7 11 3 13v76h-1l-2-10-6-12-9-8-4-2-1-45-4-8-6-4-4-1-60-1-6-8-8-7-13-5z" fill="#8033FF"/>
<path transform="translate(1632,387)" d="m0 0 11 1 8 4 6 7 4 10 1 5v24l-3 11-5 8-6 5-9 3h-9l-9-3-8-7-4-8-2-8v-25l3-11 5-8 8-6z" fill="#FDFDFE"/>
<path transform="translate(1007,387)" d="m0 0 10 1 12 6 6 6v44l-4 10-5 6-8 4-4 1h-9l-9-3-8-7-4-8-2-8-1-15 2-15 4-10 6-7 8-4z" fill="#FDFDFE"/>
<path transform="translate(758,387)" d="m0 0 10 1 8 4 6 7 4 10 1 5v25l-3 10-5 8-6 5-9 3h-9l-9-3-7-6-4-8-1-4v-44l9-8 9-4z" fill="#FDFDFE"/>
<path transform="translate(1353,365)" d="m0 0h7l7 4 3 5v104l-4 6-5 3h-10l-5-3-4-8v-100l3-6 5-4z"/>
<path transform="translate(588,233)" d="m0 0h16l8 3 7 8 2 5 1 13-2 9-4 7-5 4-9 3h-12l-10-4-6-7-3-8v-15l4-10 7-6z" fill="#FDFDFE"/>
<path transform="translate(274,250)" d="m0 0h48l-3 9-1 6-1 38h-39l-1-37z" fill="#FEFEFE"/>
<path transform="translate(242,228)" d="m0 0h110l-4 2-11 4-10 9-5 7h-49l-7-9-7-6-13-5z" fill="#8033FF"/>
<path transform="translate(1429,435)" d="m0 0h38v10l-3 8-7 8-10 4h-15l-8-3-4-5-1-2v-11l4-6z" fill="#FEFEFE"/>
<path transform="translate(1121,435)" d="m0 0h37v13l-4 8-7 6-8 3h-16l-8-4-4-5-1-3v-7l3-6 5-4z" fill="#FEFEFE"/>
<path transform="translate(869,435)" d="m0 0h37v14l-5 8-8 6-6 2h-15l-8-3-5-6-1-9 3-7 5-4z" fill="#FEFEFE"/>
<path transform="translate(1531,453)" d="m0 0h10l6 3 4 4 2 8-1 10-4 6-5 3h-14l-7-4-3-6v-14l4-6z" fill="#020001"/>
<path transform="translate(1354,317)" d="m0 0 10 1 6 4 3 6v12l-3 6-6 4-3 1h-10l-6-3-4-5-1-2v-13l3-6 6-4z" fill="#030001"/>
<path transform="translate(588,233)" d="m0 0h16l8 3 7 8 2 5 1 13-2 9-4 7-5 4-9 3h-12l-10-4-6-7-3-8v-15l4-10 7-6zm6 4-8 2-7 6-2 6v15l3 7 5 5 6 2h10l8-3 5-6 2-7v-11l-3-8-5-5-9-3z" fill="#070105"/>
<path transform="translate(588,245)" d="m0 0h12l5 3 2 3v6l-4 5h-2l5 6v4l-5-1-6-8h-3l-1 9-5-1v-24z" fill="#04030D"/>
<path transform="translate(591,250)" d="m0 0h9l2 2-1 5-2 1h-7l-1-1z" fill="#FEFEFE"/>
</svg>
